<svg xmlns="http://www.w3.org/2000/svg" width="48" height="50" viewBox="0 0 48 49"><path d="M16.055 38.031c0 .192-.223.344-.504.344-.32.031-.543-.121-.543-.344 0-.191.222-.343.504-.343.293-.028.543.124.543.343zm-3.008-.43c-.07.192.125.41.414.47.254.097.543 0 .601-.192.06-.191-.128-.41-.417-.496-.25-.067-.532.027-.598.219zm4.277-.163c-.281.07-.476.25-.445.468.027.192.277.317.57.25.281-.066.473-.25.446-.441-.032-.18-.293-.305-.57-.278zM23.691.766C10.27.766 0 10.844 0 24.117c0 10.613 6.754 19.695 16.402 22.89 1.239.223 1.676-.534 1.676-1.155 0-.594-.031-3.868-.031-5.875 0 0-6.774 1.433-8.195-2.852 0 0-1.102-2.785-2.692-3.504 0 0-2.215-1.504.156-1.473 0 0 2.41.192 3.735 2.47 2.12 3.69 5.672 2.628 7.054 2 .223-1.532.852-2.595 1.551-3.227-5.41-.594-10.87-1.368-10.87-10.575 0-2.632.737-3.953 2.284-5.636-.25-.625-1.074-3.188.254-6.5 2.02-.621 6.676 2.586 6.676 2.586a22.837 22.837 0 016.078-.817c2.063 0 4.14.278 6.078.817 0 0 4.653-3.22 6.676-2.586 1.324 3.32.504 5.875.25 6.5 1.55 1.691 2.5 3.011 2.5 5.636 0 9.235-5.703 9.973-11.11 10.575.887.757 1.645 2.191 1.645 4.441 0 3.223-.031 7.215-.031 8 0 .621.445 1.379 1.676 1.16C41.437 43.812 48 34.73 48 24.117 48 10.844 37.113.766 23.691.766zM9.406 33.773c-.125.098-.097.317.067.497.156.156.379.222.504.097.125-.097.097-.316-.067-.496-.156-.156-.379-.223-.504-.098zM8.36 33c-.066.121.032.277.223.371.156.098.352.066.418-.066.066-.125-.027-.278-.223-.375-.195-.055-.347-.028-.418.07zm3.137 3.406c-.152.125-.098.41.125.594.223.219.504.246.629.094.129-.125.07-.41-.125-.594-.21-.219-.504-.246-.629-.094zM10.395 35c-.157.094-.157.344 0 .563.152.222.414.316.539.222.156-.125.156-.375 0-.594-.133-.222-.387-.316-.54-.191zm0 0"/></svg>