<svg xmlns="http://www.w3.org/2000/svg" width="50" height="50"><path d="M6.25 10.938c-.86 0-1.563.703-1.563 1.562v2.156l16.844 13.828a5.455 5.455 0 0 0 6.946 0l16.835-13.828V12.5c0-.86-.703-1.563-1.562-1.563Zm-1.563 9.785V37.5c0 .86.704 1.563 1.563 1.563h37.5c.86 0 1.563-.704 1.563-1.563V20.723L31.444 32.109a10.152 10.152 0 0 1-12.89 0ZM0 12.5a6.258 6.258 0 0 1 6.25-6.25h37.5A6.258 6.258 0 0 1 50 12.5v25a6.258 6.258 0 0 1-6.25 6.25H6.25A6.258 6.258 0 0 1 0 37.5Zm0 0" style="stroke:none;fill-rule:nonzero;fill:#000;fill-opacity:1"/></svg>