<svg xmlns="http://www.w3.org/2000/svg" width="165" height="40"><path d="M.77 33.2v-1.87l1.65-.66V20.33l-1.65-.66V17.8l5.676-.11 3.3 7.326L13.2 17.8l5.28-.11v1.98l-1.584.66v10.34l1.65.66v1.87H11.99v-1.87l1.716-.66v-8.272l-.594 1.452-2.486 5.17-2.376.11-2.53-5.214-.374-1.144v7.898l1.694.66v1.87H.77zm26.785-12.1c3.564 0 5.544 2.156 5.544 5.94 0 3.96-2.31 6.38-5.874 6.38-3.586 0-5.61-1.87-5.61-6.05 0-3.96 2.354-6.27 5.94-6.27zm-.11 2.64c-1.606 0-2.42.88-2.42 3.52 0 2.42.704 3.52 2.31 3.52 1.584 0 2.354-.99 2.354-3.63 0-2.244-.66-3.41-2.244-3.41zm13.475 7.15 1.98.55v1.76h-7.062v-1.76l1.76-.55V18.526l-1.76-.44v-1.76l5.082-.176v14.74zm15.126-2.904h-7.304c.132 1.76 1.144 2.794 2.662 2.794 1.826 0 3.696-1.034 3.696-1.034l.946 1.826s-2.2 1.848-5.016 1.848c-3.784 0-5.72-2.2-5.72-5.94 0-3.85 2.178-6.38 5.874-6.38 3.278 0 4.994 2.024 4.994 5.17 0 .836-.132 1.65-.132 1.716zm-7.26-2.046h3.982c0-1.254-.528-2.2-1.804-2.2-1.232 0-2.002.902-2.178 2.2zm22.165-2.75-1.364.286-2.53 3.784L69.543 31l1.628.44v1.76h-5.984v-1.76l.682-.242-1.166-1.936-2.376 3.938h-3.74v-1.76l1.65-.44 2.42-3.63-2.662-3.894-1.188-.286v-1.76l5.698-.11v1.87l-.66.132 1.144 1.936 2.288-3.828 3.674-.11v1.87zM81.082 33.2l-.396-1.43s-1.694 1.65-3.564 1.65c-2.134 0-3.432-1.254-3.432-3.454 0-2.596 1.958-3.63 5.302-3.63h1.54v-1.21c0-1.122-.594-1.606-1.694-1.606-1.122 0-1.936.33-1.936.33l-.33 1.386h-1.98l-.154-3.256s2.662-.88 4.774-.88c3.344 0 4.62 1.166 4.62 4.356v5.434l1.65.396v1.76zm-.55-4.994h-1.254c-1.716 0-2.398.44-2.398 1.43 0 .836.462 1.32 1.298 1.32 1.166 0 2.354-1.276 2.354-1.276v-1.474zm12.463-6.886.154 1.518s2.09-1.694 4.048-1.694c2.134 0 3.344 1.518 3.344 3.916v5.83l1.54.55v1.76h-6.05v-1.76l1.21-.55v-5.236c0-1.012-.572-1.76-1.496-1.76-1.364 0-2.354 1.254-2.354 1.254v5.742l1.21.55v1.76h-6.27v-1.76l1.76-.55v-7.15l-1.76-.55v-1.76zM123.172 25.516c0 3.36-1.148 5.88-3.052 7.504-1.736 1.456-4.172 2.1-6.944 2.1h-5.348c-.56 0-.812-.14-.812-.784V16.584c0-.588.168-.84.868-.84h4.032c3.22 0 5.404.364 7.252 1.428 2.52 1.456 4.004 4.2 4.004 8.344zm-3.864-.028c0-2.548-.756-4.48-2.184-5.544-1.148-.84-2.632-1.148-4.424-1.148h-2.044v13.3h2.156c1.932 0 3.556-.308 4.732-1.484 1.12-1.12 1.764-2.8 1.764-5.124zm20.594 8.96c0 .448-.196.672-.672.672h-10.388c-.56 0-.756-.14-.756-.756v-17.92c0-.448.196-.7.644-.7h10.556c.448 0 .588.168.588.476v.168l-.196 1.68c-.056.504-.364.588-.952.588h-7.028v5.068h6.468c.532 0 .7.224.7.616v1.596c0 .476-.196.672-.672.672h-6.496v5.6h7.504c.476 0 .7.196.7.644v1.596zm20.65-18.284c0 .084-.028.168-.056.28l-6.58 18.06c-.14.392-.448.616-.868.616h-1.876c-.532 0-.784-.224-.952-.7l-6.888-17.892a.746.746 0 0 1-.084-.336c0-.28.224-.448.56-.448h2.464c.588 0 .868.196 1.008.588l4.956 13.832h.084l4.676-13.748c.168-.504.42-.672 1.064-.672h1.96c.364 0 .532.168.532.42z"/></svg>