<?xml version="1.0"?>
<svg version="1.1" xmlns="http://www.w3.org/2000/svg" width="165px" height="40px" style=""><path fill="#070707" d="M0.77,33.2l0-1.87l1.65-0.66l0-10.34l-1.65-0.66l0-1.87l5.676-0.11l3.3,7.326l3.454-7.216l5.28-0.11l0,1.98l-1.584,0.66l0,10.34l1.65,0.66l0,1.87l-6.556,0l0-1.87l1.716-0.66l0-8.272l-0.594,1.452l-2.486,5.17l-2.376,0.11l-2.53-5.214l-0.374-1.144l0,7.898l1.694,0.66l0,1.87l-6.27,0z M27.55522,21.1c3.564,0,5.544,2.156,5.544,5.94c0,3.96-2.31,6.38-5.874,6.38c-3.586,0-5.61-1.87-5.61-6.05c0-3.96,2.354-6.27,5.94-6.27z M27.44522,23.74c-1.606,0-2.42,0.88-2.42,3.52c0,2.42,0.704,3.52,2.31,3.52c1.584,0,2.354-0.99,2.354-3.63c0-2.244-0.66-3.41-2.244-3.41z M40.92044,30.89l1.98,0.55l0,1.76l-7.062,0l0-1.76l1.76-0.55l0-12.364l-1.76-0.44l0-1.76l5.082-0.176l0,14.74z M56.04566,27.986l-7.304,0c0.132,1.76,1.144,2.794,2.662,2.794c1.826,0,3.696-1.034,3.696-1.034l0.946,1.826s-2.2,1.848-5.016,1.848c-3.784,0-5.72-2.2-5.72-5.94c0-3.85,2.178-6.38,5.874-6.38c3.278,0,4.994,2.024,4.994,5.17c0,0.836-0.132,1.65-0.132,1.716z M48.78566,25.94l3.982,0c0-1.254-0.528-2.2-1.804-2.2c-1.232,0-2.002,0.902-2.178,2.2z M70.95088,23.19l-1.364,0.286l-2.53,3.784l2.486,3.74l1.628,0.44l0,1.76l-5.984,0l0-1.76l0.682-0.242l-1.166-1.936l-2.376,3.938l-3.74,0l0-1.76l1.65-0.44l2.42-3.63l-2.662-3.894l-1.188-0.286l0-1.76l5.698-0.11l0,1.87l-0.66,0.132l1.144,1.936l2.288-3.828l3.674-0.11l0,1.87z M81.0821,33.2l-0.396-1.43s-1.694,1.65-3.564,1.65c-2.134,0-3.432-1.254-3.432-3.454c0-2.596,1.958-3.63,5.302-3.63l1.54,0l0-1.21c0-1.122-0.594-1.606-1.694-1.606c-1.122,0-1.936,0.33-1.936,0.33l-0.33,1.386l-1.98,0l-0.154-3.256s2.662-0.88,4.774-0.88c3.344,0,4.62,1.166,4.62,4.356l0,5.434l1.65,0.396l0,1.76z M80.5321,28.206l-1.254,0c-1.716,0-2.398,0.44-2.398,1.43c0,0.836,0.462,1.32,1.298,1.32c1.166,0,2.354-1.276,2.354-1.276l0-1.474z M92.99532,21.32l0.154,1.518s2.09-1.694,4.048-1.694c2.134,0,3.344,1.518,3.344,3.916l0,5.83l1.54,0.55l0,1.76l-6.05,0l0-1.76l1.21-0.55l0-5.236c0-1.012-0.572-1.76-1.496-1.76c-1.364,0-2.354,1.254-2.354,1.254l0,5.742l1.21,0.55l0,1.76l-6.27,0l0-1.76l1.76-0.55l0-7.15l-1.76-0.55l0-1.76z"/><path fill="#0554ff" d="M123.172,25.516c0,3.36-1.148,5.88-3.052,7.504c-1.736,1.456-4.172,2.1-6.944,2.1l-5.348,0c-0.56,0-0.812-0.14-0.812-0.784l0-17.752c0-0.588,0.168-0.84,0.868-0.84l4.032,0c3.22,0,5.404,0.364,7.252,1.428c2.52,1.456,4.004,4.2,4.004,8.344z M119.308,25.488c0-2.548-0.756-4.48-2.184-5.544c-1.148-0.84-2.632-1.148-4.424-1.148l-2.044,0l0,13.3l2.156,0c1.932,0,3.556-0.308,4.732-1.484c1.12-1.12,1.764-2.8,1.764-5.124z M139.902,34.448c0,0.448-0.196,0.672-0.672,0.672l-10.388,0c-0.56,0-0.756-0.14-0.756-0.756l0-17.92c0-0.448,0.196-0.7,0.644-0.7l10.556,0c0.448,0,0.588,0.168,0.588,0.476l0,0.168l-0.196,1.68c-0.056,0.504-0.364,0.588-0.952,0.588l-7.028,0l0,5.068l6.468,0c0.532,0,0.7,0.224,0.7,0.616l0,1.596c0,0.476-0.196,0.672-0.672,0.672l-6.496,0l0,5.6l7.504,0c0.476,0,0.7,0.196,0.7,0.644l0,1.596z M160.552,16.164c0,0.084-0.028,0.168-0.056,0.28l-6.58,18.06c-0.14,0.392-0.448,0.616-0.868,0.616l-1.876,0c-0.532,0-0.784-0.224-0.952-0.7l-6.888-17.892c-0.056-0.112-0.084-0.224-0.084-0.336c0-0.28,0.224-0.448,0.56-0.448l2.464,0c0.588,0,0.868,0.196,1.008,0.588l4.956,13.832l0.084,0l4.676-13.748c0.168-0.504,0.42-0.672,1.064-0.672l1.96,0c0.364,0,0.532,0.168,0.532,0.42z"/></svg>
